<svg width="28" height="28" viewBox="0 0 28 28" fill="none" xmlns="http://www.w3.org/2000/svg">
<path d="M24.6 5.25001C24.6 7.50167 22.7683 9.33334 20.5166 9.33334C18.265 9.33334 16.4333 7.50167 16.4333 5.25001C16.4333 2.99834 18.265 1.16667 20.5166 1.16667C22.7683 1.16667 24.6 2.99834 24.6 5.25001ZM22.2666 11.4217C21.6833 11.5733 21.1 11.6667 20.5166 11.6667C18.8158 11.6636 17.1855 10.9866 15.9828 9.78387C14.7801 8.58118 14.1031 6.95086 14.1 5.25001C14.1 3.53501 14.7766 1.98334 15.85 0.828339C15.6383 0.568804 15.3713 0.359771 15.0686 0.216474C14.7658 0.073177 14.4349 -0.000775255 14.1 6.12813e-06C12.8166 6.12813e-06 11.7666 1.05001 11.7666 2.33334V2.67167C8.30164 3.69834 5.93331 6.88334 5.93331 10.5V17.5L3.59998 19.8333V21H24.6V19.8333L22.2666 17.5V11.4217ZM14.1 24.5C15.395 24.5 16.4333 23.4617 16.4333 22.1667H11.7666C11.7666 22.7855 12.0125 23.379 12.4501 23.8166C12.8876 24.2542 13.4811 24.5 14.1 24.5Z" fill="#97A199"/>
</svg>
