<svg width="20" height="21" viewBox="0 0 20 21" fill="none" xmlns="http://www.w3.org/2000/svg">
<path d="M18.4444 20.4138L11.4444 13.269C10.8889 13.7226 10.25 14.0817 9.52778 14.3464C8.80556 14.611 8.03704 14.7433 7.22222 14.7433C5.2037 14.7433 3.49556 14.0299 2.09778 12.6032C0.699259 11.1758 0 9.43193 0 7.37165C0 5.31137 0.699259 3.5675 2.09778 2.14005C3.49556 0.713349 5.2037 0 7.22222 0C9.24074 0 10.9493 0.713349 12.3478 2.14005C13.7456 3.5675 14.4444 5.31137 14.4444 7.37165C14.4444 8.20332 14.3148 8.98774 14.0556 9.7249C13.7963 10.4621 13.4444 11.1142 13 11.6812L20 18.8261L18.4444 20.4138ZM7.22222 12.4751C8.61111 12.4751 9.79185 11.9791 10.7644 10.9872C11.7363 9.99444 12.2222 8.78927 12.2222 7.37165C12.2222 5.95402 11.7363 4.74885 10.7644 3.75614C9.79185 2.76418 8.61111 2.2682 7.22222 2.2682C5.83333 2.2682 4.65259 2.76418 3.68 3.75614C2.70815 4.74885 2.22222 5.95402 2.22222 7.37165C2.22222 8.78927 2.70815 9.99444 3.68 10.9872C4.65259 11.9791 5.83333 12.4751 7.22222 12.4751Z" fill="#545454"/>
</svg>
