<svg width="1998" height="772" viewBox="0 0 1998 772" fill="none" xmlns="http://www.w3.org/2000/svg">
<g clip-path="url(#clip0_351_3)">
<rect width="1998" height="772" fill="white"/>
<rect width="1998" height="811" fill="#E9E3D9"/>
<circle cx="518" cy="647" r="561" fill="#1D2F27"/>
<circle cx="1250.5" cy="310.5" r="141.5" fill="#94120A"/>
<circle cx="1728" cy="-13" r="561" fill="#1D2F27"/>
<path d="M468.941 425.906C453.772 425.906 441.728 421.186 432.809 411.746C424.02 402.436 419.625 390.88 419.625 377.078L438.18 368.289H439.156V377.078C439.156 385.672 441.5 392.736 446.188 398.27C451.852 404.975 459.436 408.328 468.941 408.328C478.251 408.328 485.836 404.975 491.695 398.27C496.383 392.866 498.727 385.802 498.727 377.078C498.727 368.68 496.806 362.267 492.965 357.84C487.626 351.72 479.586 348.66 468.844 348.66C456.799 348.66 446.578 344.754 438.18 336.941C431.669 330.887 428.414 322.326 428.414 311.258V301.883L468.941 270.633C481.246 271.479 490.719 274.604 497.359 280.008C505.432 286.583 509.469 296.251 509.469 309.012L490.914 317.801H489.938V309.012C489.938 301.004 487.822 295.145 483.59 291.434C479.488 287.853 474.605 286.062 468.941 286.062C462.626 286.062 457.548 288.048 453.707 292.02C449.866 295.991 447.945 301.655 447.945 309.012C447.945 316.108 449.41 321.284 452.34 324.539C456.246 328.901 461.747 331.082 468.844 331.082C484.404 331.082 496.48 334.793 505.074 342.215C513.863 349.832 518.258 361.388 518.258 376.883V387.82L468.941 425.906ZM548.738 425.906V327.273H522.371V326.297L527.938 314.578H548.738V279.422L567.293 270.633H568.27V314.578H594.637V315.555L589.07 327.273H568.27V417.117L549.715 425.906H548.738ZM638.301 425.906C625.996 425.06 616.523 421.935 609.883 416.531C601.81 409.956 597.773 400.288 597.773 387.527V319.461L616.328 310.672H617.305V387.527C617.305 395.665 619.421 401.525 623.652 405.105C627.884 408.686 632.767 410.477 638.301 410.477C644.421 410.477 649.499 408.491 653.535 404.52C657.376 400.743 659.297 395.079 659.297 387.527V319.461L677.852 310.672H678.828V394.559L638.301 425.906ZM839.887 425.906C827.582 425.06 818.109 421.935 811.469 416.531C803.396 409.956 799.359 400.288 799.359 387.527V319.461L817.914 310.672H818.891V387.527C818.891 395.665 821.007 401.525 825.238 405.105C829.47 408.686 834.32 410.477 839.789 410.477C845.388 410.477 850.499 408.491 855.121 404.52C858.962 401.199 860.883 395.535 860.883 387.527V319.461L879.438 310.672H880.414V434.598L839.887 465.945C826.28 465.034 816.872 461.974 811.664 456.766L825.238 445.145C829.145 448.725 833.962 450.516 839.691 450.516C845.551 450.516 850.694 448.53 855.121 444.559C858.962 441.108 860.883 435.444 860.883 427.566V409.598L839.887 425.906ZM996.355 425.906V287.234H954.559V286.258L960.125 274.539H1057.68V275.516L1052.12 287.234H1015.89V417.117L997.332 425.906H996.355ZM1041.29 425.906V342.02L1081.82 310.672C1094.12 311.518 1103.59 314.643 1110.23 320.047C1118.31 326.622 1122.34 336.29 1122.34 349.051L1103.79 357.84H1102.81V349.051C1102.81 340.913 1100.66 335.053 1096.37 331.473C1092.14 327.892 1087.25 326.102 1081.72 326.102C1076.05 326.102 1071.01 328.087 1066.58 332.059C1062.74 335.509 1060.82 341.173 1060.82 349.051V417.117L1042.27 425.906H1041.29ZM1170.4 425.906C1158.1 425.06 1148.62 421.935 1141.98 416.531C1133.91 409.891 1129.88 400.223 1129.88 387.527V342.02L1170.4 310.672C1182.71 311.518 1192.18 314.643 1198.82 320.047C1206.89 326.622 1210.93 336.29 1210.93 349.051L1150.87 397.586C1152.04 400.841 1153.67 403.348 1155.75 405.105C1159.99 408.686 1164.8 410.477 1170.21 410.477C1175.87 410.477 1181.01 408.491 1185.64 404.52C1189.48 401.199 1191.4 395.535 1191.4 387.527L1209.95 378.738H1210.93V394.559L1170.4 425.906ZM1149.41 383.23L1191.4 349.148C1191.4 340.945 1189.25 335.053 1184.95 331.473C1180.72 327.892 1175.87 326.102 1170.4 326.102C1164.09 326.102 1159.01 328.087 1155.17 332.059C1151.33 336.03 1149.41 341.694 1149.41 349.051V383.23ZM1268.75 425.906C1256.45 425.06 1246.98 421.935 1240.34 416.531C1232.26 409.891 1228.23 400.223 1228.23 387.527V342.02L1268.75 310.672C1281.06 311.518 1290.53 314.643 1297.17 320.047C1305.24 326.622 1309.28 336.29 1309.28 349.051L1249.22 397.586C1250.39 400.841 1252.02 403.348 1254.11 405.105C1258.34 408.686 1263.15 410.477 1268.56 410.477C1274.22 410.477 1279.37 408.491 1283.99 404.52C1287.83 401.199 1289.75 395.535 1289.75 387.527L1308.3 378.738H1309.28V394.559L1268.75 425.906ZM1247.76 383.23L1289.75 349.148C1289.75 340.945 1287.6 335.053 1283.3 331.473C1279.07 327.892 1274.22 326.102 1268.75 326.102C1262.44 326.102 1257.36 328.087 1253.52 332.059C1249.68 336.03 1247.76 341.694 1247.76 349.051V383.23Z" fill="#B0AC93"/>
<path d="M736.652 410.477C742.902 410.477 747.948 408.491 751.789 404.52C755.695 400.548 757.648 394.884 757.648 387.527V349.051C757.648 341.434 755.533 335.574 751.301 331.473C747.59 327.892 742.707 326.102 736.652 326.102C730.467 326.102 725.422 328.087 721.516 332.059C717.609 336.03 715.656 341.694 715.656 349.051V387.527C715.656 395.665 717.772 401.525 722.004 405.105C726.236 408.686 731.118 410.477 736.652 410.477ZM736.652 425.906C724.348 425.06 714.875 421.935 708.234 416.531C700.161 409.891 696.125 400.223 696.125 387.527V342.02L736.652 310.672C744.921 311.258 751.919 312.853 757.648 315.457V279.422L776.203 270.633H777.18V394.559L736.652 425.906Z" fill="#94120A"/>
</g>
<defs>
<clipPath id="clip0_351_3">
<rect width="1998" height="772" fill="white"/>
</clipPath>
</defs>
</svg>
