<svg width="1128" height="211" viewBox="0 0 1128 211" fill="none" xmlns="http://www.w3.org/2000/svg">
<g clip-path="url(#clip0_737_2)">
<rect width="1128" height="211" fill="white"/>
<rect width="1249" height="219" fill="#97A199"/>
<circle cx="207" cy="187" r="75" fill="#94120A"/>
<circle cx="666.5" cy="97.5" r="42.5" fill="#94120A"/>
<circle cx="1007" cy="90" r="24" fill="#94120A"/>
<circle cx="132.5" cy="-44.5" r="158.5" fill="#1D2F27"/>
<circle cx="715" cy="-150" r="255" fill="#1D2F27"/>
<circle cx="531" cy="26" r="161" fill="#1D2F27"/>
<circle cx="862.5" cy="57.5" r="82.5" fill="#1D2F27"/>
<circle cx="1098" cy="185" r="128" fill="#1D2F27"/>
<circle cx="1117.5" cy="-13.5" r="98.5" fill="#1D2F27"/>
<circle cx="726.5" cy="257.5" r="98.5" fill="#1D2F27"/>
<circle cx="12.5" cy="130.5" r="98.5" fill="#1D2F27"/>
<circle cx="271.5" cy="238.5" r="88.5" fill="#1D2F27"/>
<circle cx="263.5" cy="112.5" r="27.5" fill="#1D2F27"/>
<circle cx="879" cy="140" r="33" fill="#1D2F27"/>
<circle cx="803" cy="205" r="33" fill="#1D2F27"/>
<circle cx="1056" cy="73" r="49" fill="#1D2F27"/>
<circle cx="340.5" cy="2.5" r="82.5" fill="#1D2F27"/>
<circle cx="465" cy="2" r="105" fill="#97A199"/>
<circle cx="609.5" cy="2.5" r="82.5" fill="#1D2F27"/>
<circle cx="384.5" cy="-4.5" r="75.5" fill="#1D2F27"/>
</g>
<defs>
<clipPath id="clip0_737_2">
<rect width="1128" height="211" fill="white"/>
</clipPath>
</defs>
</svg>
